<?xml version='1.0' encoding='utf-8'?>
<svg xmlns="http://www.w3.org/2000/svg" version="1.1" width="600px" height="976px" viewBox="0 0 600 976"> <g id="layer1"> <g> <g style="fill:rgb(255,255,255); fill-opacity:1.0; stroke-linejoin: miter"> <path d="M170.81743,387.4513L170.81743,632.60187L171.06427,632.602L297.19583,632.602L297.1959,387.4514L170.81747,387.4513"/> </g> <g style="fill:rgb(87,85,85); fill-opacity:1.0; stroke-linejoin: miter"> <path d="M232.67693,622.7627Q227.49753,622.85284,223.87874,626.3909Q220.28795,630.0641,220.21103,635.1966Q220.27345,640.3314,223.84166,644.0111Q227.54877,647.6099,232.62587,647.6763Q237.80576,647.5999,241.43481,644.0702Q245.036,640.40405,245.12462,635.2716Q245.07382,630.1369,241.51581,626.4498Q237.84705,622.84326,232.6878,622.7627"/> </g> <g> <g style="fill:rgb(34,34,34); fill-opacity:1.0; stroke-linejoin: miter"> <path d="M185.09352,372.162C179.8984,372.1625,174.73126,374.29712,171.05777,377.97064C167.38428,381.6441,165.24968,386.81128,165.24915,392.0064L165.24915,636.7539C165.24968,641.94904,167.38428,647.1162,171.05777,650.78973C174.73126,654.4632,179.8984,656.5978,185.09352,656.5983L284.31543,656.5983C289.51053,656.5978,294.6777,654.46326,298.3512,650.78973C302.0247,647.1162,304.15927,641.94904,304.1598,636.7539L304.1598,392.0064C304.15927,386.81128,302.0247,381.6441,298.3512,377.97064C294.6777,374.29712,289.51053,372.1625,284.31543,372.162L185.09352,372.162 Z M224.30684,385.39157L244.15123,385.39157L224.30684,385.39157 Z M171.86395,405.23596L297.545,405.23596L297.545,620.2169L171.86395,620.2169L171.86395,405.23596 Z M234.70447,626.8317C240.18434,626.8317,244.62666,631.27405,244.62666,636.7539C244.62666,642.23376,240.18434,646.67615,234.70447,646.67615C229.22461,646.67615,224.78229,642.23376,224.78229,636.7539C224.78229,631.27405,229.22461,626.8317,234.70447,626.8317 Z"/> </g> </g> </g> <g> <g style="fill:rgb(27,27,27); fill-opacity:1.0; stroke-linejoin: miter"> <path d="M261.3534,517.09485C261.23895,505.6959,270.6482,500.22842,271.0681,499.95346C265.78137,492.22134,257.54364,491.1603,254.61066,491.04086C247.6072,490.32797,240.93619,495.16666,237.38167,495.16666C233.83614,495.16666,228.34563,491.1445,222.53731,491.2462C214.89433,491.36063,207.85176,495.69174,203.9186,502.53287C195.98283,516.2986,201.88954,536.7013,209.62187,547.87537C213.4031,553.3357,217.91124,559.4818,223.82515,559.2566C229.52649,559.0316,231.67896,555.56836,238.56956,555.56836C245.46037,555.56836,247.39674,559.2566,253.42688,559.1406C259.55664,559.0298,263.4433,553.57495,267.19415,548.0917C271.53296,541.7473,273.32068,535.60474,273.4261,535.29224C273.29346,535.2312,261.4762,530.70337,261.3534,517.09485 Z M250.02213,483.6461C253.15852,479.83804,255.2838,474.54587,254.70706,469.27853C250.17935,469.46237,244.6994,472.28818,241.45036,476.09268C238.53888,479.46848,235.99211,484.8428,236.67429,490.0153C241.72339,490.4066,246.87476,487.447,250.02213,483.6461 Z"/> </g> </g> </g> </svg>